<svg width="48" height="48" viewBox="0 0 24 24" fill="none" xmlns="http://www.w3.org/2000/svg">
<circle cx="12" cy="12" r="12" fill="#111010"/>
<path d="M5.30514 11.4227H10.02C10.3943 11.4227 10.7532 11.5717 11.0179 11.837C11.2825 12.1022 11.4312 12.4619 11.4312 12.837V18.6942C11.4312 18.7753 11.399 18.8531 11.3418 18.9104C11.2846 18.9678 11.207 19 11.126 19H5.30514C5.22432 19 5.1468 18.9679 5.0896 18.9107C5.03239 18.8534 5.00017 18.7758 5 18.6948V11.7279C5.00017 11.6469 5.03239 11.5693 5.0896 11.5121C5.1468 11.4549 5.22432 11.4227 5.30514 11.4227Z" fill="url(#paint0_linear_2913_20079)"/>
<path d="M10.2701 5.09269L5.13373 9.94789C5.08902 9.99132 5.05818 10.0471 5.0451 10.1081C5.03203 10.1691 5.03731 10.2326 5.06028 10.2906C5.08325 10.3486 5.12289 10.3985 5.17416 10.4339C5.22543 10.4693 5.28602 10.4887 5.34828 10.4895H18.1955C18.279 10.4895 18.359 10.4563 18.418 10.3972C18.477 10.3381 18.5101 10.2579 18.5101 10.1742V5.31527C18.5101 5.23166 18.477 5.15146 18.418 5.09233C18.359 5.03321 18.279 5 18.1955 5H10.4847C10.4039 5.00215 10.3271 5.03534 10.2701 5.09269Z" fill="url(#paint1_linear_2913_20079)"/>
<path d="M15.4249 17.8813C17.1282 17.8813 18.509 16.4975 18.509 14.7904C18.509 13.0833 17.1282 11.6995 15.4249 11.6995C13.7216 11.6995 12.3408 13.0833 12.3408 14.7904C12.3408 16.4975 13.7216 17.8813 15.4249 17.8813Z" fill="url(#paint2_linear_2913_20079)"/>
<defs>
<linearGradient id="paint0_linear_2913_20079" x1="5" y1="11.4949" x2="14.7267" y2="7.13039" gradientUnits="userSpaceOnUse">
<stop stop-color="#F85860"/>
<stop offset="1" stop-color="#FFA84A"/>
</linearGradient>
<linearGradient id="paint1_linear_2913_20079" x1="2.91815" y1="7.69069" x2="14.9457" y2="3.20887" gradientUnits="userSpaceOnUse">
<stop stop-color="#572DA5"/>
<stop offset="1" stop-color="#783EE3"/>
</linearGradient>
<linearGradient id="paint2_linear_2913_20079" x1="13.6962" y1="15.7457" x2="20.8552" y2="8.83821" gradientUnits="userSpaceOnUse">
<stop stop-color="#FFA84A"/>
<stop offset="1" stop-color="#FFE8BB"/>
</linearGradient>
</defs>
</svg>
