<svg width="54" height="15" viewBox="0 0 54 15" fill="none" xmlns="http://www.w3.org/2000/svg">
<g clip-path="url(#clip0)">
<path d="M33.3054 14.025L28.0741 1.33649C28.0329 1.22085 28.0111 1.09922 28.0096 0.976486C27.9993 0.71614 28.0917 0.462186 28.2668 0.269236C28.3565 0.177348 28.4649 0.105714 28.5845 0.0591448C28.7042 0.0125753 28.8325 -0.00785159 28.9607 -0.000763981C29.155 0.00182125 29.3438 0.0647213 29.5008 0.179236C29.6662 0.301191 29.7958 0.465441 29.8758 0.654736L34.8506 13.071L39.8224 0.655486C39.9024 0.466172 40.0319 0.301914 40.1974 0.179986C40.3544 0.0654713 40.5432 0.00257125 40.7375 -1.3981e-05C40.8657 -0.00710159 40.994 0.0133253 41.1137 0.0598948C41.2333 0.106464 41.3417 0.178098 41.4313 0.269986C41.6065 0.462936 41.6988 0.71689 41.6886 0.977236C41.6871 1.09997 41.6653 1.2216 41.6241 1.33724L36.3906 14.025C36.3007 14.3037 36.1261 14.5475 35.891 14.7223C35.656 14.897 35.3722 14.9941 35.0794 15H34.6166C34.3237 14.9941 34.04 14.897 33.8049 14.7223C33.5699 14.5475 33.3952 14.3037 33.3054 14.025Z" fill="url(#paint0_linear)"/>
<path d="M43.9091 14.6145C43.8203 14.5252 43.7506 14.4188 43.7041 14.3017C43.6577 14.1846 43.6356 14.0594 43.639 13.9335V1.07774C43.6344 0.820002 43.7314 0.570788 43.9091 0.383995C43.996 0.29134 44.1018 0.21832 44.2192 0.169817C44.3367 0.121314 44.4631 0.0984466 44.5901 0.102745H53.0904C53.2107 0.0993544 53.3302 0.12169 53.4411 0.168256C53.552 0.214822 53.6516 0.284542 53.7333 0.372745C53.8205 0.455248 53.8896 0.555013 53.936 0.665678C53.9825 0.776343 54.0055 0.895481 54.0033 1.01549C54.0067 1.1338 53.9843 1.25141 53.9376 1.36019C53.891 1.46897 53.8213 1.56632 53.7333 1.64549C53.6485 1.72868 53.5479 1.79424 53.4376 1.8384C53.3273 1.88255 53.2093 1.90442 53.0904 1.90274H45.5676V6.58124H52.3291C52.4493 6.5779 52.5688 6.60026 52.6797 6.64682C52.7905 6.69339 52.8902 6.76308 52.9719 6.85124C53.0581 6.93452 53.1265 7.03443 53.1729 7.14491C53.2193 7.2554 53.2428 7.37416 53.242 7.49399C53.2453 7.6123 53.2229 7.72991 53.1762 7.83869C53.1296 7.94747 53.0599 8.04482 52.9719 8.12399C52.8871 8.20718 52.7866 8.27274 52.6762 8.3169C52.5659 8.36105 52.4479 8.38292 52.3291 8.38124H45.5676V13.086H53.0904C53.2107 13.0826 53.3302 13.1049 53.4411 13.1515C53.552 13.1981 53.6516 13.2678 53.7333 13.356C53.8205 13.4385 53.8896 13.5383 53.936 13.6489C53.9825 13.7596 54.0055 13.8787 54.0033 13.9987C54.0067 14.117 53.9843 14.2347 53.9376 14.3434C53.891 14.4522 53.8213 14.5496 53.7333 14.6287C53.6485 14.7119 53.5479 14.7775 53.4376 14.8216C53.3273 14.8658 53.2093 14.8877 53.0904 14.886H44.5901C44.4635 14.8952 44.3364 14.8755 44.2184 14.8285C44.1004 14.7814 43.9947 14.7083 43.9091 14.6145Z" fill="url(#paint1_linear)"/>
<path d="M29.2555 13.6635L24.0242 0.975C23.9343 0.696252 23.7597 0.452495 23.5247 0.277718C23.2896 0.10294 23.0059 0.00585533 22.713 0L22.2502 0C21.9573 0.00585533 21.6736 0.10294 21.4386 0.277718C21.2035 0.452495 21.0289 0.696252 20.939 0.975L18.6639 6.50175H16.9386C16.6907 6.50451 16.4538 6.60472 16.2792 6.78071C16.1046 6.95671 16.0063 7.19435 16.0055 7.44225V7.455C16.0069 7.70341 16.1062 7.94126 16.2819 8.11692C16.4575 8.29258 16.6954 8.39187 16.9439 8.39325H17.8695L15.6942 13.6635C15.653 13.7791 15.6312 13.9008 15.6297 14.0235C15.6194 14.2839 15.7118 14.5378 15.887 14.7308C15.9767 14.8226 16.085 14.8943 16.2047 14.9408C16.3243 14.9874 16.4526 15.0078 16.5808 15.0008C16.7752 14.9982 16.9639 14.9353 17.1209 14.8208C17.2864 14.6988 17.4159 14.5346 17.496 14.3453L19.8866 8.394H21.5316C21.78 8.39262 22.0179 8.29333 22.1936 8.11767C22.3693 7.94201 22.4686 7.70416 22.47 7.45575V7.4295C22.4686 7.18109 22.3693 6.94324 22.1936 6.76758C22.0179 6.59192 21.78 6.49263 21.5316 6.49125H20.6449L22.4827 1.92825L27.4575 14.3445C27.5375 14.5338 27.6671 14.698 27.8325 14.82C27.9896 14.9345 28.1783 14.9974 28.3726 15C28.5009 15.0071 28.6291 14.9867 28.7488 14.9401C28.8685 14.8935 28.9768 14.8219 29.0665 14.73C29.2417 14.5371 29.3341 14.2831 29.3238 14.0228C29.3273 13.8995 29.304 13.7769 29.2555 13.6635Z" fill="url(#paint2_linear)"/>
<path d="M13.625 13.6639L8.39365 0.975427C8.30377 0.696679 8.12914 0.452922 7.89409 0.278145C7.65905 0.103368 7.37531 0.00628258 7.08245 0.000427246L6.61963 0.000427246C6.32677 0.00628258 6.04304 0.103368 5.80799 0.278145C5.57295 0.452922 5.39831 0.696679 5.30843 0.975427L3.03333 6.50443H1.30807C1.06053 6.50718 0.823986 6.60708 0.64943 6.78259C0.474875 6.9581 0.376289 7.19517 0.374927 7.44268V7.45543C0.376306 7.70384 0.475615 7.94169 0.651299 8.11735C0.826984 8.29301 1.06487 8.3923 1.31332 8.39368H2.23671L0.0613792 13.6639C0.0202091 13.7796 -0.00158718 13.9012 -0.00313061 14.0239C-0.013419 14.2843 0.0789772 14.5383 0.254159 14.7312C0.343857 14.8231 0.452181 14.8947 0.571857 14.9413C0.691534 14.9878 0.81979 15.0083 0.948015 15.0012C1.14235 14.9986 1.33108 14.9357 1.4881 14.8212C1.65357 14.6993 1.78314 14.535 1.86315 14.3457L4.25377 8.39443H5.91227C6.16098 8.39324 6.39917 8.29393 6.57504 8.11809C6.75091 7.94225 6.85023 7.7041 6.85142 7.45543V7.42993C6.85004 7.18151 6.75073 6.94367 6.57504 6.76801C6.39936 6.59235 6.16148 6.49306 5.91302 6.49168H5.02564L6.85067 1.92868L11.8254 14.3449C11.9054 14.5342 12.035 14.6985 12.2005 14.8204C12.3575 14.9349 12.5462 14.9978 12.7406 15.0004C12.8688 15.0075 12.997 14.9871 13.1167 14.9405C13.2364 14.894 13.3447 14.8223 13.4344 14.7304C13.6096 14.5375 13.702 14.2835 13.6917 14.0232C13.6957 13.9 13.6729 13.7774 13.625 13.6639Z" fill="url(#paint3_linear)"/>
</g>
<defs>
<linearGradient id="paint0_linear" x1="0.661241" y1="15.5101" x2="55.3233" y2="3.9072" gradientUnits="userSpaceOnUse">
<stop stop-color="#30BAC6"/>
<stop offset="1" stop-color="#B6509E"/>
</linearGradient>
<linearGradient id="paint1_linear" x1="1.68116" y1="19.5458" x2="56.7493" y2="12.6358" gradientUnits="userSpaceOnUse">
<stop stop-color="#30BAC6"/>
<stop offset="1" stop-color="#B6509E"/>
</linearGradient>
<linearGradient id="paint2_linear" x1="0.248709" y1="13.892" x2="54.9113" y2="2.26452" gradientUnits="userSpaceOnUse">
<stop stop-color="#30BAC6"/>
<stop offset="1" stop-color="#B6509E"/>
</linearGradient>
<linearGradient id="paint3_linear" x1="-0.702423" y1="10.1569" x2="53.9639" y2="-1.48463" gradientUnits="userSpaceOnUse">
<stop stop-color="#30BAC6"/>
<stop offset="1" stop-color="#B6509E"/>
</linearGradient>
<clipPath id="clip0">
<rect width="54" height="15" fill="white"/>
</clipPath>
</defs>
</svg>
