<svg width="85" height="61" viewBox="0 0 85 61" fill="none" xmlns="http://www.w3.org/2000/svg">
<path fill-rule="evenodd" clip-rule="evenodd" d="M74.523 7.62605C74.523 7.62605 85 26.5793 85 49.9621C85 49.9621 78.8149 60.4917 62.7344 61C62.7344 61 60.1109 57.8774 57.9289 55.118C67.4634 52.4311 71.1015 46.4765 71.1015 46.4765C68.1172 48.4372 65.2814 49.8169 62.7344 50.7609C47.0529 57.3324 29.6055 55.0834 17.3201 48.2193C17.2835 48.1944 17.1427 48.1135 16.9356 47.9945C16.3253 47.6438 15.1386 46.9619 14.34 46.4039C14.34 46.4039 17.8295 52.2133 27.0754 54.9727C24.8891 57.7322 22.1977 61 22.1977 61C6.11297 60.4917 0 49.9621 0 49.9621C0 26.5793 10.4812 7.62605 10.4812 7.62605C20.9624 -0.216651 30.9299 0.00120211 30.9299 0.00120211L31.6601 0.872614C18.5597 4.64873 12.5189 10.3855 12.5189 10.3855C12.5189 10.3855 14.1193 9.51411 16.8107 8.27961C33.5831 0.929426 53.8875 0.931135 71.1737 10.3855C71.1737 10.3855 65.4258 4.9392 53.0555 1.16308L54.0743 0.00120211C54.0743 0.00120211 64.0419 -0.216651 74.523 7.62605ZM28.8923 27.0876C24.7448 27.0876 21.4718 30.7185 21.4718 35.1481C21.4718 39.5778 24.817 43.2087 28.8923 43.2087C33.0398 43.2087 36.317 39.5778 36.317 35.1481C36.3892 30.7185 33.0398 27.0876 28.8923 27.0876ZM62.8787 35.1481C62.8787 39.5778 59.6015 43.2087 55.454 43.2087C51.3787 43.2087 48.0335 39.5778 48.0335 35.1481C48.0335 30.7185 51.3065 27.0876 55.454 27.0876C59.6015 27.0876 62.8787 30.7185 62.8787 35.1481Z" fill="white"/>
</svg>
