<svg width="130" height="29" viewBox="0 0 130 29" fill="none" xmlns="http://www.w3.org/2000/svg">
<path d="M0.611434 13.8167H10.059C10.809 13.8167 11.5282 14.1153 12.0585 14.6468C12.5888 15.1782 12.8868 15.8991 12.8868 16.6507V28.3872C12.8868 28.5497 12.8223 28.7056 12.7077 28.8205C12.593 28.9354 12.4375 29 12.2753 29H0.611434C0.44949 29 0.29416 28.9356 0.17953 28.821C0.0649 28.7063 0.000333905 28.5508 0 28.3885L0 14.4282C0.000333905 14.2659 0.0649 14.1104 0.17953 13.9957C0.29416 13.8811 0.44949 13.8167 0.611434 13.8167Z" fill="url(#paint0_linear_2130_15904)"/>
<path d="M10.5596 1.13263L0.267336 10.8615C0.177744 10.9485 0.115945 11.0602 0.0897434 11.1824C0.063542 11.3047 0.0741196 11.432 0.120153 11.5482C0.166186 11.6644 0.245615 11.7643 0.348345 11.8353C0.451074 11.9062 0.572499 11.945 0.69725 11.9468H26.4405C26.6077 11.9468 26.768 11.8802 26.8862 11.7617C27.0044 11.6433 27.0708 11.4826 27.0708 11.315V1.57864C27.0708 1.41109 27.0044 1.25039 26.8862 1.13192C26.768 1.01344 26.6077 0.946899 26.4405 0.946899H10.9895C10.8277 0.951208 10.6738 1.01771 10.5596 1.13263Z" fill="url(#paint1_linear_2130_15904)"/>
<path d="M20.8884 26.7586C24.3014 26.7586 27.0683 23.9856 27.0683 20.565C27.0683 17.1444 24.3014 14.3714 20.8884 14.3714C17.4753 14.3714 14.7085 17.1444 14.7085 20.565C14.7085 23.9856 17.4753 26.7586 20.8884 26.7586Z" fill="url(#paint2_linear_2130_15904)"/>
<path d="M59.1364 9.53605H47.2493V12.6101H58.7821V17.1586H47.2493V23.9954H41.2207V5.09109H59.1401L59.1364 9.53605Z" fill="white"/>
<path d="M85.2679 14.1086V14.8667C85.2679 18.829 82.9874 24.291 73.5335 24.291H72.3989C62.9702 24.291 60.6631 18.829 60.6631 14.8667V14.1086C60.6631 10.0958 62.9702 4.78662 72.3989 4.78662H73.5335C82.9622 4.79041 85.2679 10.097 85.2679 14.1086ZM72.975 9.5108C67.9322 9.5108 66.9691 12.2551 66.9691 14.312V14.6456C66.9691 16.7025 68.0331 19.5226 72.975 19.5226C77.9938 19.5226 78.957 16.7025 78.957 14.6456V14.3145C78.957 12.2551 77.9938 9.5108 72.975 9.5108Z" fill="white"/>
<path d="M97.7639 5.09109C107.849 5.09109 110.107 9.89235 110.107 13.957V14.7151C110.107 18.8846 108.231 23.9865 97.7891 23.9865H87.3721V5.09109H97.7639ZM97.2319 19.4468C103.214 19.4468 103.796 16.5774 103.796 14.5445V14.3929C103.796 12.437 103.189 9.61817 97.2319 9.61817H93.4297V19.4468H97.2319Z" fill="white"/>
<path d="M118.219 19.0678H129.624V23.9954H112.161V5.09109H118.219V19.0678Z" fill="white"/>
<defs>
<linearGradient id="paint0_linear_2130_15904" x1="-7.46688e-08" y1="13.9614" x2="19.4902" y2="5.21576" gradientUnits="userSpaceOnUse">
<stop stop-color="#F85860"/>
<stop offset="1" stop-color="#FFA84A"/>
</linearGradient>
<linearGradient id="paint1_linear_2130_15904" x1="-4.17222" y1="6.33849" x2="19.9285" y2="-2.64216" gradientUnits="userSpaceOnUse">
<stop stop-color="#572DA5"/>
<stop offset="1" stop-color="#783EE3"/>
</linearGradient>
<linearGradient id="paint2_linear_2130_15904" x1="17.4244" y1="22.4793" x2="31.7695" y2="8.63804" gradientUnits="userSpaceOnUse">
<stop stop-color="#FFA84A"/>
<stop offset="1" stop-color="#FFE8BB"/>
</linearGradient>
</defs>
</svg>
