<svg width="23" height="24" viewBox="0 0 23 24" fill="none" xmlns="http://www.w3.org/2000/svg">
<path d="M0.519489 10.9345H8.5464C9.18358 10.9345 9.79466 11.1882 10.2452 11.6397C10.6958 12.0913 10.9489 12.7037 10.9489 13.3423V23.314C10.9489 23.452 10.8942 23.5845 10.7967 23.6821C10.6993 23.7797 10.5672 23.8346 10.4294 23.8346H0.519489C0.381897 23.8346 0.249925 23.7799 0.152533 23.6825C0.0551406 23.5851 0.000283694 23.4529 0 23.315L0 11.4541C0.000283694 11.3162 0.0551406 11.184 0.152533 11.0866C0.249925 10.9892 0.381897 10.9345 0.519489 10.9345Z" fill="url(#paint0_linear_2131_16360)"/>
<path d="M8.97161 0.157799L0.227041 8.42364C0.150922 8.49758 0.0984159 8.59247 0.0761546 8.69634C0.0538932 8.80021 0.0628802 8.90837 0.101991 9.00711C0.141102 9.10585 0.208587 9.19075 0.295868 9.25103C0.38315 9.31132 0.486316 9.34427 0.592307 9.34575H22.4644C22.6064 9.34575 22.7427 9.28921 22.8431 9.18855C22.9435 9.08789 22.9999 8.95136 22.9999 8.80901V0.536743C22.9999 0.39439 22.9435 0.257855 22.8431 0.157197C22.7427 0.0565377 22.6064 0 22.4644 0H9.33685C9.1994 0.00366047 9.06863 0.0601586 8.97161 0.157799Z" fill="url(#paint1_linear_2131_16360)"/>
<path d="M17.7472 21.9302C20.647 21.9302 22.9978 19.5743 22.9978 16.668C22.9978 13.7618 20.647 11.4058 17.7472 11.4058C14.8473 11.4058 12.4966 13.7618 12.4966 16.668C12.4966 19.5743 14.8473 21.9302 17.7472 21.9302Z" fill="url(#paint2_linear_2131_16360)"/>
<defs>
<linearGradient id="paint0_linear_2131_16360" x1="-6.34404e-08" y1="11.0574" x2="16.5593" y2="3.62693" gradientUnits="userSpaceOnUse">
<stop stop-color="#F85860"/>
<stop offset="1" stop-color="#FFA84A"/>
</linearGradient>
<linearGradient id="paint1_linear_2131_16360" x1="-3.54491" y1="4.58082" x2="16.9316" y2="-3.04935" gradientUnits="userSpaceOnUse">
<stop stop-color="#572DA5"/>
<stop offset="1" stop-color="#783EE3"/>
</linearGradient>
<linearGradient id="paint2_linear_2131_16360" x1="14.8041" y1="18.2944" x2="26.992" y2="6.53459" gradientUnits="userSpaceOnUse">
<stop stop-color="#FFA84A"/>
<stop offset="1" stop-color="#FFE8BB"/>
</linearGradient>
</defs>
</svg>
