<svg width="72" height="32" viewBox="0 0 72 32" fill="none" xmlns="http://www.w3.org/2000/svg">
<path d="M4.006 17.686V31H0.646V1.6H10.726V4.288H4.006V14.998H10.096V17.686H4.006ZM31.2802 10.378V22.222C31.2802 25.778 30.7062 28.242 29.5582 29.614C28.4382 30.958 26.8142 31.63 24.6862 31.63C22.5862 31.63 20.9622 30.958 19.8142 29.614C18.6942 28.242 18.1342 25.778 18.1342 22.222V10.378C18.1342 6.822 18.6942 4.372 19.8142 3.028C20.9622 1.656 22.5862 0.969999 24.6862 0.969999C26.8142 0.969999 28.4382 1.656 29.5582 3.028C30.7062 4.372 31.2802 6.822 31.2802 10.378ZM27.9622 22.852V9.748C27.9622 5.716 26.8842 3.7 24.7282 3.7C23.6922 3.7 22.8802 4.134 22.2922 5.002C21.7322 5.87 21.4522 7.452 21.4522 9.748V22.852C21.4522 25.148 21.7322 26.73 22.2922 27.598C22.8802 28.466 23.6922 28.9 24.7282 28.9C26.8842 28.9 27.9622 26.884 27.9622 22.852ZM40.4898 31V1.6H46.2018C48.3298 1.6 49.9678 2.286 51.1158 3.658C52.2638 5.002 52.8378 7.452 52.8378 11.008V21.592C52.8378 25.148 52.2638 27.612 51.1158 28.984C49.9678 30.328 48.3298 31 46.2018 31H40.4898ZM49.5198 22.348V10.294C49.5198 6.29 48.4138 4.288 46.2018 4.288H43.8498V28.354H46.2018C48.4138 28.354 49.5198 26.352 49.5198 22.348ZM62.0523 31V1.6H65.4123V28.312H71.9223V31H62.0523Z" fill="white"/>
</svg>
